<?xml version="1.0" encoding="UTF-8" standalone="no"?>
<!DOCTYPE svg PUBLIC "-//W3C//DTD SVG 1.1//EN" "http://www.w3.org/Graphics/SVG/1.1/DTD/svg11.dtd">
<svg xmlns="http://www.w3.org/2000/svg" xmlns:xlink="http://www.w3.org/1999/xlink" version="1.1" width="492.368pt" height="353.952pt" viewBox="0 0 492.368 353.952">
<g enable-background="new">
<clipPath id="cp0">
<path transform="matrix(1,0,0,-1,-59.321,690.16506)" d="M 0 0 L 612 0 L 612 792 L 0 792 Z "/>
</clipPath>
<g clip-path="url(#cp0)">
<text xml:space="preserve" transform="matrix(1 0 -0 1 -59.321 690.16506)" font-size="17.2154" font-family="CMR17"><tspan y="-668.194" x="257.75 268.11369 276.01554 282.10978 303.7495 318.8474 325.83686 332.80909 346.3576">PotWWeek1</tspan></text>
<text xml:space="preserve" transform="matrix(1 0 -0 1 -59.321 690.16506)" font-size="11.9552" font-family="CMR12"><tspan y="-639.303" x="232.151 241.3326 247.51343 254.01706 262.4694 265.7212 276.12223 286.84605 292.7041 297.25904 307.67204 316.44715 322.3052 328.80885 334.6669 343.11924 349.62287 355.8037 361.0042 364.256 369.4565 373.68867">GodwinMathHonorSociety</tspan></text>
<text xml:space="preserve" transform="matrix(1 0 -0 1 -59.321 690.16506)" font-size="9.9626" font-family="CMR10"><tspan y="-602.441" x="86.944 90.5405 99.10834 104.08964 112.65748 117.63878 120.40838 124.28383 128.70723 132.61257 138.15177 143.13306 147.00852 154.4705 160.0097 165.5489 168.31851 173.29982 177.72322 181.62856 185.55382 189.97722 195.83524 199.7107 205.2499 212.70192 218.24112 222.66452 230.96337 233.73297 238.15637 240.92598 244.83132 249.25472 252.02433 259.48634 267.23725 275.5361 279.9595 287.41154 291.287 295.16246 300.70167 308.1537 313.13499 315.90458 319.78004 324.20344 328.10877 333.64799 338.62928 342.50474 349.96675 355.496 361.03523 363.8048 368.79609 373.21949 377.12483 381.05009 385.47349 388.24308 395.19697 399.62037 404.60166 410.14088 415.40113 419.27659 423.69999 427.60533 433.14454 438.12583 442.03117 448.93525 452.8107 460.8306 465.8119 471.3511 478.28507 486.03599 490.73835 495.71965 501.52784 509.27876 517.5776 522.001 526.4244 533.3284 536.098">Inanalternateuniverse,theSemicircleO&#xfb03;ce(thealternateuniverse&#x2019;scounterparttoourOvalO&#xfb03;ce)is</tspan><tspan y="-590.48599" x="72 77.53921 83.078418 87.00368 90.87913 93.64873 96.41833 101.957538 110.21653 115.19783 122.39082 127.37212 130.14173 137.06572 141.76807 147.02832 154.23128 161.42427 164.19388 168.06934 176.87627 181.85756 186.28096 190.15642 192.92603 198.18628 200.95589 204.56235 208.98575 216.1688 223.64075 228.3431 235.26709 239.69049 244.6718 249.0952 253.00054 259.04786 262.9233 268.46253 276.16365 283.07768 287.78999 296.31797 300.19343 305.73265 313.43376 318.97297 323.39637 331.69523 334.4648 338.8882 341.6578 345.56315 349.98655 352.75614 360.45726 368.20817 376.50703 380.93043 388.63154 395.54557 400.52687 404.4322 409.69245 416.89543 419.665 426.86799 431.84928 436.27268 440.178 448.71598 455.63 460.0534 462.823 466.72834 472.26756 479.4406 483.31608 488.8553 493.2787 497.18403 504.88514 509.86643 513.7718 521.46298 526.4443 531.98348 534.75308">bustlingasalwayswithactivity.However,thewaytheSemicircleO&#xfb03;ceworksisveryweird:thereareonly</tspan><tspan y="-578.52999" x="72 75.5965 82.510547 90.67988 97.593929 102.575229 106.48057 111.46187 115.895229 119.7906 126.9039 134.0969 136.8665 140.74196 146.28116 149.05077 157.778 161.65346 167.19266 174.79413 179.77542 188.07427 192.49767 200.1091 205.0904 212.15389 217.13518 219.89482 225.85247 229.72792 232.49753 240.79637 245.21977 252.33307 265.47373 274.88838 279.86967 283.775 288.7563 293.1797 297.08503 304.1983 314.84834 319.82963 325.36885 334.09608 344.33763 357.47828 362.45957 367.99879 376.726 380.60148 386.1407 390.5641 399.0024 403.9837 407.88905 415.50047 421.31864 426.29994 430.2252 432.99479 436.87025 439.63984 444.62113 450.16035 454.58375 463.30104 468.28233 475.3458 479.22126 484.76048 492.36195 496.78535 502.32456 507.86378 514.97708 519.9584 526.185 530.0604 535.5996">twoworkerswithintheo&#xfb03;ceatalltimes&#x2014;WorkersAandB&#x2014;andtheyarepositionedattheendsofthe</tspan><tspan y="-566.57498" x="72 76.9813 85.28014 89.70354 94.12693 96.89653 104.68728 110.22649 112.996089 117.97739 126.27623 130.69963 134.57509 138.99849 142.90383 151.71077 161.95232 167.49152 171.91492 177.45412 181.87752 186.86878 191.29218 199.05304 202.9783 207.9596 216.25844 220.68184 226.49999 231.76023 237.29943 246.4152 251.9544 256.3778 260.8012 266.34043 274.13117 278.00663 286.84346 290.74879 296.288 305.6927 310.67399 320.06874 324.49214 328.39747 332.3028 337.2841 342.8233 348.36253 355.1271 359.00257 364.54179 368.96519 378.08097 382.50437 387.7746 391.65007 396.07347 403.83433 407.70979 413.249 421.52793 425.96128 428.72093 432.62626 437.0596 442.58888 450.88774 453.93629 458.36964 462.265 466.69837 472.22764 476.66099 484.9399 489.9212 496.8253 500.70075 506.23997 514.5289 521.72189 524.49148 528.3968 532.8202 535.5898">o&#xfb03;ce&#x2019;sdiameter.Wheneversomebodyneedstorunanerrand,theyenterthecircumferenceoftheCircle</tspan><tspan y="-554.61996" x="72 79.7509 88.04974 92.47314 96.89653 103.84046 113.245159 118.226459 122.1318 127.1131 131.54647 137.99227 148.01465 154.9287 159.90999 162.6796 167.93985 174.41555 179.95475 182.72435 186.61972 191.05309 195.47649 199.35195 202.12155 209.92227 213.79773 221.32946 225.20491 230.74411 237.70798 242.13138 246.03672 249.94205 254.92334 260.46257 266.00178 269.3193 273.22465 278.76387 284.30308 289.8423 294.2657 300.72145 305.70274 311.24195 319.32164 323.19709 327.62049 330.39009 333.15968 339.63536 343.5108 349.05003 356.02384 359.92918 365.46839 371.0076 376.5468 380.9702 387.41603 391.29148 398.82319 402.72853 408.26774 416.3474 420.22288 427.75459 437.16923 442.1505 446.05586 451.03715 455.46055 461.90635 471.51029 476.49159 482.91746 486.7929 492.33213 499.296 504.27729 508.15275 513.69198 518.11538 524.5711 528.9945 534.5337">O&#xfb03;ce.WorkerAwalksdirectlytotheerrand-runnerandtellstherunnertoruntoWorkerBattheotherend</tspan><tspan y="-542.6649" x="72 76.9813 83.21789 87.09334 92.632549 100.24397 105.78318 108.55278 113.53408 121.832927 126.25632 130.13178 134.55518 138.46051 145.61367 153.08562 156.13417 160.00963 164.43303 171.5264 175.40186 180.94106 188.55249 192.45783 197.99703 203.53623 209.07543 213.49883 220.5922 224.49753 230.03673 235.57593 242.68923 246.56468 254.72405 264.1387 269.12 273.02534 278.00663 282.43003 289.52339 296.5769 302.53453 311.94917 316.93046 320.8358 325.81709 330.24049 337.33384 347.9938 354.90785 359.88914 362.65873 367.91899 375.03227 380.57148 385.55278 389.6972 398.14549 402.02095 410.19026 415.72947 418.49906 425.61235 430.03575 435.57496 444.3022 449.28349 455.52006 459.3955 464.93473 472.54615 478.08537 480.85496 485.83625 494.1351 498.5585 502.43397 506.85737 510.7627 517.91586 525.66677 531.20596 535.62936">ofthediameter.AftertherunnerrunstoWorkerB,WorkerAwalksbacktohisendofthediameter.Once</tspan><tspan y="-530.7099" x="72 75.87545 81.41466 89.155597 93.060939 98.60014 104.13935 109.67856 114.10195 121.3348 126.87401 131.8553 139.09812 143.52152 148.5028 156.80165 162.34085 165.11046 169.53386 173.40932 177.83272 186.69944 190.57489 196.11409 203.85504 208.27845 212.18378 216.08911 221.0704 226.6096 232.1488 238.24593 247.66059 252.64188 256.53727 261.52854 265.95195 273.1748 283.55586 296.83598 305.14479 309.0501 313.4735 318.4548 324.54194 331.45597 336.43727 340.3426 345.33387 349.75727 356.98014 362.7983 367.2217 374.97264 388.25276 392.15809 397.13938 401.56278 405.98619 413.23896 417.1144 422.65364 430.39457 434.81797 438.7233 442.62864 447.60993 453.14915 458.68836 462.0059 465.91123 471.45045 476.98966 482.52888 486.95228 490.8576 498.06056 507.46525 512.44656 516.35189 521.34317 525.76657 532.98947">therunnerhascompletedtheerrand,WorkerB&#x2014;arealworkerbee&#x2014;racestheerrand-runner:WorkerB</tspan><tspan y="-518.7549" x="72 75.90534 81.44455 86.98376 93.78821 97.66366 105.51419 109.38964 114.92885 122.23143 127.21273 132.75194 138.56014 143.54143 147.47666 150.24626 154.12172 161.41436 165.83776 171.37696 179.79535 184.77664 190.69443 194.56989 200.10909 207.41168 212.95088 215.72049 220.70178 229.00063 233.42403 237.29949 241.72289 248.50742 253.48871 259.02793 267.43638 272.9756 277.95689 282.10133 290.24076 294.1162 301.97669 307.5159 311.9393 318.71388 322.63914 326.5146 331.49589 335.4012 339.27668 342.04627 347.58549 355.44596 361.25416 366.23545 369.00505 374.27528 381.01997 388.21296 393.75218 396.52177 399.29136 406.59394 410.4694 416.0086 423.30125 427.7346 431.62998 435.5353 440.5166 446.05583 451.59504 454.91258 458.8179 464.35713 469.89634 475.43556 479.85896 486.64347 490.5488 496.088 501.62724 508.42173 513.96096 518.94229 523.0967 531.22616 535.10159">runstotheoppositeendofthediameterandbacktoherstartingpointwhiletheerrand-runnerrunsbackto</tspan><tspan y="-506.7989" x="72 75.87545 81.41466 89.24526 95.06342 100.04472 103.969989 106.739589 110.615039 113.384639 118.36594 127.312358 132.29366 141.24007 145.11553 150.65473 158.48534 162.90874 165.67835 169.58368 174.00708 179.54628 187.84513 190.89368 195.31708 199.22241 203.64582 209.18502 213.60842 221.43903 226.42032 232.87609 236.75154 242.29074 250.13132 255.67052 260.0939 268.39277 271.16236 275.58576 278.35536 282.26069 286.68409 289.45368 297.28428 305.0352 313.33406 317.75746 325.58805 328.6366 332.54194 337.52323 349.22929 356.42228 361.9615 364.73109 368.87553 377.82194 383.36116 391.20173 396.183 400.08836 402.85795 407.83924 410.60884 416.14805 421.12934 423.88899 426.65858 435.336 439.7594 445.01966 448.8951 453.3185 457.22386 461.64726 467.18647 474.64845 478.24494 484.70069 488.57615 494.11537 501.94596 505.8513 510.83259 516.37179 519.14138 524.68057 532.01309 536.9944">thepositiononthecircumferenceoftheSemicircleO&#xfb03;cefromwhichheoriginallyentered.Iftheradiusof</tspan><tspan y="-494.8439" x="72 75.87545 81.41466 88.71724 94.25645 98.67984 106.97868 109.74828 114.17168 116.94128 120.84662 125.27001 128.03961 135.34221 143.09311 151.39196 155.81536 163.11795 165.88756 172.69202 177.67331 185.5338 193.83264 198.25605 202.1315 206.5549 210.46024 214.3855 220.12397 227.31696 232.85616 237.83745 244.58214 247.35175 254.1562 258.08149 263.6207 274.79875 279.78004 285.70777 289.58323 295.12245 302.42503 306.35029 311.61054 317.14976 322.13105 326.03639 330.45979 338.87818 344.4174 347.18699 351.11225 354.9877 359.969 365.5082 369.9316 374.355 381.15946 385.58287 390.56416 394.7086 403.12699 408.94517 413.36857 417.2739 421.19917 426.18046">theSemicircleO&#xfb03;ceis25meters,whatissumofthesquareddistanceseachperson</tspan></text>
<text xml:space="preserve" transform="matrix(1 0 -0 1 -59.321 690.16506)" font-size="9.9626" font-family="CMBX10" font-weight="bold"><tspan y="-494.8439" x="434.619 442.89793 446.076 450.52928 456.89537 460.07344 469.7471 474.20039 480.56648 489.1343 495.49046 500.74076 510.29487 513.4729 518.5638 521.7418 526.4641 531.555 534.73306">withintheSemicircle</tspan><tspan y="-482.88893" x="72 80.60769 90.15186 95.24275">O&#xfb03;ce</tspan></text>
<text xml:space="preserve" transform="matrix(1 0 -0 1 -59.321 690.16506)" font-size="9.9626" font-family="CMR10"><tspan y="-482.88893" x="104.483 108.906398 113.60874 118.59004 123.0234 126.91878 134.83905 139.82035 149.34459 154.04694 159.02825 163.45165 167.35698 172.33827 177.31957 185.72801 188.77657 193.75786 201.64824 206.07164 211.05295 215.47635 219.38169 228.63694 233.06034 236.96567 240.871 245.8523 251.38153 256.92076 260.23829 264.14363 269.68284 275.22206 280.76127 285.18467 293.07505 296.9505 302.48973 307.471 315.3315 319.7549 325.02516 328.9006 333.324 337.22935 345.13966 349.0151 354.55433 362.96278 367.94407 376.24293 380.66633 389.07478 394.05607 397.98133 401.9066 407.4458 415.74467 418.51426 424.05348 433.0198 436.89527 442.43449 447.41578 455.27629 459.15174 464.69096 473.0994 475.869 481.12925 485.55265 490.53395 494.4094 497.179 502.16029 511.68455 516.66586 526.19009 530.0655 535.6047">coversonaverageforeveryerrand-runnerthatenterstheo&#xfb03;ceassumingthatthelocationonthe</tspan><tspan y="-470.93394" x="72 76.42339 79.19299 83.098339 87.52173 93.060939 101.35978 104.40833 108.831729 112.73707 117.16046 122.69967 127.12306 134.86402 139.8453 146.22138 150.09683 155.63603 163.37699 168.91619 173.33959 181.63843 184.40804 188.83144 191.60105 195.50638 199.92978 202.69939 210.44034 218.19124 226.50005 230.92345 238.6644 242.53986 248.07906 253.06035 260.25334 264.12879 269.668 277.4189 281.84233 285.74766 289.65299 294.63429 300.16355 305.70277 309.0203 312.92564 318.46485 324.00407 329.54328 333.96669 341.19953 345.62294 350.88319 354.75865 359.18205 363.08738 370.33018 373.37873 377.28407 382.26536 393.89173 396.66133 403.9041 407.80946 412.79075 418.32997 423.86918 428.85047 437.14933">circumferenceoftheSemicircleO&#xfb03;cethattheerrand-runnerentersfromisrandom?</tspan></text>
<clipPath id="cp1">
<path transform="matrix(1,0,0,-1,147.467,318.78404)" d="M 0 0 L 198.425 0 L 198.425 86.602 L 0 86.602 Z "/>
</clipPath>
<g clip-path="url(#cp1)">
<clipPath id="cp2">
<path transform="matrix(1,0,0,-1,147.467,318.782)" d="M 0 0 L 198.43 0 L 198.43 86.6 L 0 86.6 Z "/>
</clipPath>
<g clip-path="url(#cp2)">
<path transform="matrix(.1,0,0,-.1,147.467,318.782)" stroke-width="5" stroke-linecap="round" stroke-linejoin="round" fill="none" stroke="#000000" d="M 1723.02 133.844 C 1723.02 536.832 1396.33 863.516 993.34 863.516 C 590.352 863.516 263.664 536.832 263.664 133.844 "/>
<path transform="matrix(.1,0,0,-.1,147.467,318.782)" stroke-width="5" stroke-linecap="round" stroke-linejoin="round" fill="none" stroke="#000000" d="M 263.664 133.844 L 1723.02 133.844 "/>
</g>
<text xml:space="preserve" transform="matrix(1 0 -0 1 147.467 318.78404)" font-size="11.9552" font-family="CMR12"><tspan y="-1.497" x="1.5 12.546605 18.404654 22.959586 28.817633 34.018148 42.470476">WorkerA</tspan></text>
<text xml:space="preserve" transform="matrix(1 0 -0 1 147.467 318.78404)" font-size="11.9552" font-family="CMR12"><tspan y="-1.497" x="147.6882 158.7348 164.59285 169.14778 175.00583 180.20635 188.65868">WorkerB</tspan></text>
</g>
<text xml:space="preserve" transform="matrix(1 0 -0 1 -59.321 690.16506)" font-size="9.9626" font-family="CMR10"><tspan y="-349.463" x="86.448 92.953578 95.723178 100.704479 106.24368 110.149028 117.88996 122.87126 130.07422 137.26721 142.80641 150.54737 156.08657 160.50997 168.8088 171.57842 176.00182 178.77143 182.67676 187.10016 189.86977 197.61072 205.36162 213.67043 218.09383 225.83478 239.11493 242.99039 248.52959 256.2805 260.7039 264.60923 268.51457 273.49586 279.03507 284.57429 287.8918 291.79716 297.32643 302.86564 308.40486 312.82826 320.0611 324.4845 329.74476 333.6202 338.0436 341.94895 349.19175 354.17304 361.376 369.67485 373.58018 378.56147 384.10069 389.6399 394.6212 406.23759 412.05577 417.03706 419.80665 425.0669 432.26988 437.25117 446.1079 449.98338 455.52259 463.26353 467.68693 470.4565 474.36186 478.78526 484.32447 492.62333 495.67189 500.09529 504.0006 508.424 513.9632 518.3866 522.81">Figure1:TheSemicircleO&#xfb03;ce&#x2014;theerrand-runnerentersatarandompointonthecircumference.</tspan></text>
</g>
</g>
</svg>
